<svg xmlns="http://www.w3.org/2000/svg" viewBox="0 0 256 256" role="img" aria-label="Vida de Perros">
  <!-- Marca PROVISORIA (isotipo). Reemplazar por el logo original: ver lib/vet/config/business.ts -->
  <circle cx="128" cy="128" r="120" fill="#fbf7f0"/>
  <circle cx="128" cy="128" r="104" fill="none" stroke="#147a7f" stroke-width="10" stroke-linecap="round" stroke-dasharray="560 80" transform="rotate(-70 128 128)"/>
  <g fill="#1c1b1f">
    <ellipse cx="128" cy="150" rx="40" ry="34"/>
    <ellipse cx="80" cy="108" rx="15" ry="20" transform="rotate(-18 80 108)"/>
    <ellipse cx="110" cy="84" rx="15" ry="21" transform="rotate(-6 110 84)"/>
    <ellipse cx="146" cy="84" rx="15" ry="21" transform="rotate(6 146 84)"/>
    <ellipse cx="176" cy="108" rx="15" ry="20" transform="rotate(18 176 108)"/>
  </g>
  <path d="M128 168c-9-7-18-13-18-22a9 9 0 0 1 18-3 9 9 0 0 1 18 3c0 9-9 15-18 22z" fill="#147a7f"/>
</svg>
